<svg id="Group_2740" data-name="Group 2740" xmlns="http://www.w3.org/2000/svg" width="39" height="39" viewBox="0 0 39 39">
  <circle id="Ellipse_6" data-name="Ellipse 6" cx="19.5" cy="19.5" r="19.5" fill="#3d44db" opacity="0.1"/>
  <path id="Title" d="M0-4A3.227,3.227,0,0,0,3.219-7.25,3.244,3.244,0,0,0,0-10.5,3.227,3.227,0,0,0-3.225-7.25,3.21,3.21,0,0,0,0-4ZM0-9A1.751,1.751,0,0,1,1.746-7.25,1.752,1.752,0,0,1,0-5.5a1.753,1.753,0,0,1-1.75-1.75A1.751,1.751,0,0,1,0-9ZM6-9a2.5,2.5,0,0,0,2.5-2.5A2.5,2.5,0,0,0,6-14a2.5,2.5,0,0,0-2.5,2.5A2.5,2.5,0,0,0,6-9ZM1.559-3H-1.559A4.31,4.31,0,0,0-6,1.166.861.861,0,0,0-5.113,2H5.113A.861.861,0,0,0,6,1.166,4.31,4.31,0,0,0,1.559-3ZM-4.434.5a2.909,2.909,0,0,1,2.848-2H1.559A2.91,2.91,0,0,1,4.407.5ZM7.247-8H5.314a2.606,2.606,0,0,0-1.121.258,4.281,4.281,0,0,1,.05.492A4.213,4.213,0,0,1,3.207-4.5H9.448A.569.569,0,0,0,10-5.084,2.838,2.838,0,0,0,7.247-8Zm-11.5.75a4.163,4.163,0,0,1,.05-.5A2.263,2.263,0,0,0-5.316-8H-7.247A2.838,2.838,0,0,0-10-5.084a.569.569,0,0,0,.551.584h6.234A4.209,4.209,0,0,1-4.253-7.25ZM-6-9a2.5,2.5,0,0,0,2.5-2.5A2.5,2.5,0,0,0-6-14a2.5,2.5,0,0,0-2.5,2.5A2.5,2.5,0,0,0-6-9Z" transform="translate(20 26)" fill="#3d44db"/>
</svg>
